ISO-10303-21;
HEADER;
/* Generated by software containing ST-Developer
 * from STEP Tools, Inc. (www.steptools.com) 
 */

FILE_DESCRIPTION(
/* description */ (''),
/* implementation_level */ '2;1');

FILE_NAME(
/* name */ 'Eggbeater.step',
/* time_stamp */ '2026-01-05T14:51:27+05:00',
/* author */ (''),
/* organization */ (''),
/* preprocessor_version */ 'ST-DEVELOPER v20.1',
/* originating_system */ 'Autodesk Translation Framework v14.21.0.0',
/* authorisation */ '');

FILE_SCHEMA (('AUTOMOTIVE_DESIGN { 1 0 10303 214 3 1 1 }'));
ENDSEC;

DATA;
#10=MECHANICAL_DESIGN_GEOMETRIC_PRESENTATION_REPRESENTATION('',(#17),#1173);
#11=ITEM_DEFINED_TRANSFORMATION($,$,#645,#719);
#12=(
REPRESENTATION_RELATIONSHIP($,$,#1184,#1183)
REPRESENTATION_RELATIONSHIP_WITH_TRANSFORMATION(#11)
SHAPE_REPRESENTATION_RELATIONSHIP()
);
#13=CONTEXT_DEPENDENT_SHAPE_REPRESENTATION(#12,#1182);
#14=NEXT_ASSEMBLY_USAGE_OCCURRENCE('Weapon:1','Weapon:1','Weapon:1',#1186,
#1187,'Weapon:1');
#15=SHAPE_REPRESENTATION_RELATIONSHIP('SRR','None',#1184,#16);
#16=ADVANCED_BREP_SHAPE_REPRESENTATION('',(#18),#1172);
#17=STYLED_ITEM('',(#1198),#18);
#18=MANIFOLD_SOLID_BREP('Body1',#631);
#19=TOROIDAL_SURFACE('',#686,9.5,3.);
#20=TOROIDAL_SURFACE('',#693,9.5,3.);
#21=TOROIDAL_SURFACE('',#699,9.5,3.);
#22=B_SPLINE_CURVE_WITH_KNOTS('',3,(#975,#976,#977,#978,#979,#980,#981,
#982,#983,#984),.UNSPECIFIED.,.F.,.F.,(4,2,2,2,4),(0.,0.11098932897129,
0.222089562527866,0.333366023466954,0.444882668805059),.UNSPECIFIED.);
#23=B_SPLINE_CURVE_WITH_KNOTS('',3,(#996,#997,#998,#999,#1000,#1001,#1002,
#1003,#1004,#1005),.UNSPECIFIED.,.F.,.F.,(4,2,2,2,4),(0.674877738188659,
0.827875918720536,0.951931465310144,1.0730861871294,1.18315877342651),
 .UNSPECIFIED.);
#24=B_SPLINE_CURVE_WITH_KNOTS('',3,(#1049,#1050,#1051,#1052,#1053,#1054,
#1055,#1056,#1057,#1058,#1059,#1060),.UNSPECIFIED.,.F.,.F.,(4,2,2,2,2,4),
(3.15462606362209,3.25353469280629,3.36653339772316,3.50776780618704,3.61256305626396,
3.71735830634089),.UNSPECIFIED.);
#25=B_SPLINE_CURVE_WITH_KNOTS('',3,(#1064,#1065,#1066,#1067,#1068,#1069,
#1070,#1071,#1072,#1073,#1074,#1075),.UNSPECIFIED.,.F.,.F.,(4,2,2,2,2,4),
(2.5918938209033,2.69668907098022,2.80148432105715,2.94271872952103,3.05571743443789,
3.15462606362209),.UNSPECIFIED.);
#26=B_SPLINE_CURVE_WITH_KNOTS('',3,(#1092,#1093,#1094,#1095,#1096,#1097,
#1098,#1099,#1100,#1101,#1102,#1103),.UNSPECIFIED.,.F.,.F.,(4,2,2,2,2,4),
(0.616896798444383,0.703006524753431,0.789116251062478,0.92197173046355,
1.035000589284,1.13744078555162),.UNSPECIFIED.);
#27=B_SPLINE_CURVE_WITH_KNOTS('',3,(#1121,#1122,#1123,#1124,#1125,#1126,
#1127,#1128,#1129,#1130,#1131,#1132),.UNSPECIFIED.,.F.,.F.,(4,2,2,2,2,4),
(1.13744078555162,1.23988098181923,1.35290984063968,1.48576532004075,1.5718750463498,
1.65798477265885),.UNSPECIFIED.);
#28=CYLINDRICAL_SURFACE('',#656,12.);
#29=CYLINDRICAL_SURFACE('',#658,5.);
#30=CYLINDRICAL_SURFACE('',#660,12.5);
#31=CYLINDRICAL_SURFACE('',#665,12.5);
#32=CYLINDRICAL_SURFACE('',#667,3.);
#33=CYLINDRICAL_SURFACE('',#670,12.5);
#34=CYLINDRICAL_SURFACE('',#673,3.);
#35=CYLINDRICAL_SURFACE('',#676,3.);
#36=CYLINDRICAL_SURFACE('',#680,3.);
#37=CYLINDRICAL_SURFACE('',#683,12.5);
#38=CYLINDRICAL_SURFACE('',#689,12.5);
#39=CYLINDRICAL_SURFACE('',#708,5.);
#40=CYLINDRICAL_SURFACE('',#709,5.);
#41=CYLINDRICAL_SURFACE('',#710,5.);
#42=CYLINDRICAL_SURFACE('',#711,5.);
#43=CYLINDRICAL_SURFACE('',#712,12.);
#44=CYLINDRICAL_SURFACE('',#713,12.5);
#45=CYLINDRICAL_SURFACE('',#716,9.5);
#46=FACE_BOUND('',#82,.T.);
#47=FACE_BOUND('',#104,.T.);
#48=FACE_BOUND('',#115,.T.);
#49=FACE_OUTER_BOUND('',#81,.T.);
#50=FACE_OUTER_BOUND('',#83,.T.);
#51=FACE_OUTER_BOUND('',#84,.T.);
#52=FACE_OUTER_BOUND('',#85,.T.);
#53=FACE_OUTER_BOUND('',#86,.T.);
#54=FACE_OUTER_BOUND('',#87,.T.);
#55=FACE_OUTER_BOUND('',#88,.T.);
#56=FACE_OUTER_BOUND('',#89,.T.);
#57=FACE_OUTER_BOUND('',#90,.T.);
#58=FACE_OUTER_BOUND('',#91,.T.);
#59=FACE_OUTER_BOUND('',#92,.T.);
#60=FACE_OUTER_BOUND('',#93,.T.);
#61=FACE_OUTER_BOUND('',#94,.T.);
#62=FACE_OUTER_BOUND('',#95,.T.);
#63=FACE_OUTER_BOUND('',#96,.T.);
#64=FACE_OUTER_BOUND('',#97,.T.);
#65=FACE_OUTER_BOUND('',#98,.T.);
#66=FACE_OUTER_BOUND('',#99,.T.);
#67=FACE_OUTER_BOUND('',#100,.T.);
#68=FACE_OUTER_BOUND('',#101,.T.);
#69=FACE_OUTER_BOUND('',#102,.T.);
#70=FACE_OUTER_BOUND('',#103,.T.);
#71=FACE_OUTER_BOUND('',#105,.T.);
#72=FACE_OUTER_BOUND('',#106,.T.);
#73=FACE_OUTER_BOUND('',#107,.T.);
#74=FACE_OUTER_BOUND('',#108,.T.);
#75=FACE_OUTER_BOUND('',#109,.T.);
#76=FACE_OUTER_BOUND('',#110,.T.);
#77=FACE_OUTER_BOUND('',#111,.T.);
#78=FACE_OUTER_BOUND('',#112,.T.);
#79=FACE_OUTER_BOUND('',#113,.T.);
#80=FACE_OUTER_BOUND('',#114,.T.);
#81=EDGE_LOOP('',(#402,#403,#404,#405,#406,#407,#408,#409,#410,#411,#412,
#413,#414,#415));
#82=EDGE_LOOP('',(#416));
#83=EDGE_LOOP('',(#417,#418,#419,#420));
#84=EDGE_LOOP('',(#421,#422,#423,#424));
#85=EDGE_LOOP('',(#425,#426,#427,#428));
#86=EDGE_LOOP('',(#429,#430,#431,#432,#433,#434,#435,#436));
#87=EDGE_LOOP('',(#437,#438,#439,#440));
#88=EDGE_LOOP('',(#441,#442,#443,#444,#445,#446,#447,#448));
#89=EDGE_LOOP('',(#449,#450,#451,#452));
#90=EDGE_LOOP('',(#453,#454,#455,#456));
#91=EDGE_LOOP('',(#457,#458,#459,#460));
#92=EDGE_LOOP('',(#461,#462,#463,#464));
#93=EDGE_LOOP('',(#465,#466,#467,#468));
#94=EDGE_LOOP('',(#469,#470,#471,#472,#473,#474,#475,#476,#477,#478));
#95=EDGE_LOOP('',(#479,#480,#481,#482));
#96=EDGE_LOOP('',(#483,#484,#485,#486));
#97=EDGE_LOOP('',(#487,#488,#489,#490));
#98=EDGE_LOOP('',(#491,#492,#493,#494));
#99=EDGE_LOOP('',(#495,#496,#497,#498,#499,#500));
#100=EDGE_LOOP('',(#501,#502,#503,#504));
#101=EDGE_LOOP('',(#505,#506,#507,#508,#509,#510,#511));
#102=EDGE_LOOP('',(#512,#513,#514,#515));
#103=EDGE_LOOP('',(#516,#517,#518,#519,#520,#521,#522,#523,#524,#525,#526,
#527));
#104=EDGE_LOOP('',(#528));
#105=EDGE_LOOP('',(#529,#530,#531,#532));
#106=EDGE_LOOP('',(#533,#534,#535,#536));
#107=EDGE_LOOP('',(#537,#538,#539,#540));
#108=EDGE_LOOP('',(#541,#542,#543,#544));
#109=EDGE_LOOP('',(#545,#546,#547,#548));
#110=EDGE_LOOP('',(#549,#550,#551,#552));
#111=EDGE_LOOP('',(#553,#554,#555,#556));
#112=EDGE_LOOP('',(#557,#558,#559,#560,#561,#562,#563,#564,#565,#566));
#113=EDGE_LOOP('',(#567,#568,#569,#570,#571,#572,#573,#574));
#114=EDGE_LOOP('',(#575,#576,#577,#578,#579,#580,#581,#582,#583,#584,#585,
#586));
#115=EDGE_LOOP('',(#587));
#116=CIRCLE('',#647,12.5);
#117=CIRCLE('',#648,5.);
#118=CIRCLE('',#649,12.);
#119=CIRCLE('',#650,5.);
#120=CIRCLE('',#651,5.);
#121=CIRCLE('',#652,12.);
#122=CIRCLE('',#653,5.);
#123=CIRCLE('',#654,12.5);
#124=CIRCLE('',#655,5.);
#125=CIRCLE('',#657,12.);
#126=CIRCLE('',#659,5.);
#127=CIRCLE('',#661,12.5);
#128=CIRCLE('',#666,12.5);
#129=CIRCLE('',#668,3.);
#130=CIRCLE('',#669,3.);
#131=CIRCLE('',#671,12.5);
#132=CIRCLE('',#672,12.5);
#133=CIRCLE('',#674,3.);
#134=CIRCLE('',#675,3.);
#135=CIRCLE('',#677,3.);
#136=CIRCLE('',#678,3.);
#137=CIRCLE('',#681,3.);
#138=CIRCLE('',#682,3.);
#139=CIRCLE('',#684,12.5);
#140=CIRCLE('',#685,12.5);
#141=CIRCLE('',#687,9.5);
#142=CIRCLE('',#688,12.5);
#143=CIRCLE('',#690,12.5);
#144=CIRCLE('',#692,9.5);
#145=CIRCLE('',#694,12.5);
#146=CIRCLE('',#695,9.5);
#147=CIRCLE('',#697,9.5);
#148=CIRCLE('',#698,9.5);
#149=CIRCLE('',#700,9.5);
#150=CIRCLE('',#702,5.);
#151=CIRCLE('',#703,12.5);
#152=CIRCLE('',#704,5.);
#153=CIRCLE('',#705,12.);
#154=CIRCLE('',#706,5.);
#155=CIRCLE('',#707,5.);
#156=CIRCLE('',#717,9.5);
#157=LINE('',#923,#203);
#158=LINE('',#925,#204);
#159=LINE('',#927,#205);
#160=LINE('',#937,#206);
#161=LINE('',#939,#207);
#162=LINE('',#941,#208);
#163=LINE('',#953,#209);
#164=LINE('',#956,#210);
#165=LINE('',#959,#211);
#166=LINE('',#963,#212);
#167=LINE('',#967,#213);
#168=LINE('',#969,#214);
#169=LINE('',#971,#215);
#170=LINE('',#973,#216);
#171=LINE('',#985,#217);
#172=LINE('',#988,#218);
#173=LINE('',#989,#219);
#174=LINE('',#992,#220);
#175=LINE('',#994,#221);
#176=LINE('',#1007,#222);
#177=LINE('',#1009,#223);
#178=LINE('',#1010,#224);
#179=LINE('',#1013,#225);
#180=LINE('',#1020,#226);
#181=LINE('',#1023,#227);
#182=LINE('',#1028,#228);
#183=LINE('',#1038,#229);
#184=LINE('',#1041,#230);
#185=LINE('',#1044,#231);
#186=LINE('',#1045,#232);
#187=LINE('',#1047,#233);
#188=LINE('',#1062,#234);
#189=LINE('',#1077,#235);
#190=LINE('',#1078,#236);
#191=LINE('',#1083,#237);
#192=LINE('',#1107,#238);
#193=LINE('',#1110,#239);
#194=LINE('',#1136,#240);
#195=LINE('',#1147,#241);
#196=LINE('',#1149,#242);
#197=LINE('',#1151,#243);
#198=LINE('',#1153,#244);
#199=LINE('',#1158,#245);
#200=LINE('',#1159,#246);
#201=LINE('',#1161,#247);
#202=LINE('',#1165,#248);
#203=VECTOR('',#726,10.);
#204=VECTOR('',#727,10.);
#205=VECTOR('',#728,10.);
#206=VECTOR('',#737,10.);
#207=VECTOR('',#738,10.);
#208=VECTOR('',#739,10.);
#209=VECTOR('',#752,5.);
#210=VECTOR('',#755,10.);
#211=VECTOR('',#758,10.);
#212=VECTOR('',#763,10.);
#213=VECTOR('',#768,10.);
#214=VECTOR('',#769,10.);
#215=VECTOR('',#770,10.);
#216=VECTOR('',#771,10.);
#217=VECTOR('',#772,10.);
#218=VECTOR('',#775,10.);
#219=VECTOR('',#776,10.);
#220=VECTOR('',#779,10.);
#221=VECTOR('',#780,10.);
#222=VECTOR('',#781,10.);
#223=VECTOR('',#782,10.);
#224=VECTOR('',#783,10.);
#225=VECTOR('',#786,10.);
#226=VECTOR('',#793,10.);
#227=VECTOR('',#796,10.);
#228=VECTOR('',#801,10.);
#229=VECTOR('',#814,10.);
#230=VECTOR('',#817,10.);
#231=VECTOR('',#820,10.);
#232=VECTOR('',#821,10.);
#233=VECTOR('',#822,10.);
#234=VECTOR('',#823,10.);
#235=VECTOR('',#824,10.);
#236=VECTOR('',#825,10.);
#237=VECTOR('',#830,10.);
#238=VECTOR('',#847,10.);
#239=VECTOR('',#852,10.);
#240=VECTOR('',#873,10.);
#241=VECTOR('',#888,5.);
#242=VECTOR('',#891,10.);
#243=VECTOR('',#894,10.);
#244=VECTOR('',#897,5.);
#245=VECTOR('',#904,10.);
#246=VECTOR('',#905,10.);
#247=VECTOR('',#908,10.);
#248=VECTOR('',#913,9.5);
#249=VERTEX_POINT('',#921);
#250=VERTEX_POINT('',#922);
#251=VERTEX_POINT('',#924);
#252=VERTEX_POINT('',#926);
#253=VERTEX_POINT('',#928);
#254=VERTEX_POINT('',#930);
#255=VERTEX_POINT('',#932);
#256=VERTEX_POINT('',#934);
#257=VERTEX_POINT('',#936);
#258=VERTEX_POINT('',#938);
#259=VERTEX_POINT('',#940);
#260=VERTEX_POINT('',#942);
#261=VERTEX_POINT('',#944);
#262=VERTEX_POINT('',#946);
#263=VERTEX_POINT('',#949);
#264=VERTEX_POINT('',#952);
#265=VERTEX_POINT('',#954);
#266=VERTEX_POINT('',#958);
#267=VERTEX_POINT('',#962);
#268=VERTEX_POINT('',#966);
#269=VERTEX_POINT('',#968);
#270=VERTEX_POINT('',#970);
#271=VERTEX_POINT('',#972);
#272=VERTEX_POINT('',#974);
#273=VERTEX_POINT('',#987);
#274=VERTEX_POINT('',#991);
#275=VERTEX_POINT('',#993);
#276=VERTEX_POINT('',#995);
#277=VERTEX_POINT('',#1006);
#278=VERTEX_POINT('',#1008);
#279=VERTEX_POINT('',#1012);
#280=VERTEX_POINT('',#1016);
#281=VERTEX_POINT('',#1017);
#282=VERTEX_POINT('',#1019);
#283=VERTEX_POINT('',#1021);
#284=VERTEX_POINT('',#1025);
#285=VERTEX_POINT('',#1027);
#286=VERTEX_POINT('',#1034);
#287=VERTEX_POINT('',#1035);
#288=VERTEX_POINT('',#1037);
#289=VERTEX_POINT('',#1039);
#290=VERTEX_POINT('',#1043);
#291=VERTEX_POINT('',#1046);
#292=VERTEX_POINT('',#1048);
#293=VERTEX_POINT('',#1061);
#294=VERTEX_POINT('',#1063);
#295=VERTEX_POINT('',#1076);
#296=VERTEX_POINT('',#1080);
#297=VERTEX_POINT('',#1082);
#298=VERTEX_POINT('',#1089);
#299=VERTEX_POINT('',#1091);
#300=VERTEX_POINT('',#1106);
#301=VERTEX_POINT('',#1116);
#302=VERTEX_POINT('',#1120);
#303=VERTEX_POINT('',#1135);
#304=VERTEX_POINT('',#1139);
#305=VERTEX_POINT('',#1141);
#306=VERTEX_POINT('',#1144);
#307=VERTEX_POINT('',#1157);
#308=VERTEX_POINT('',#1163);
#309=EDGE_CURVE('',#249,#250,#157,.T.);
#310=EDGE_CURVE('',#251,#249,#158,.T.);
#311=EDGE_CURVE('',#252,#251,#159,.T.);
#312=EDGE_CURVE('',#253,#252,#116,.T.);
#313=EDGE_CURVE('',#254,#253,#117,.T.);
#314=EDGE_CURVE('',#255,#254,#118,.T.);
#315=EDGE_CURVE('',#256,#255,#119,.T.);
#316=EDGE_CURVE('',#257,#256,#160,.T.);
#317=EDGE_CURVE('',#258,#257,#161,.T.);
#318=EDGE_CURVE('',#259,#258,#162,.T.);
#319=EDGE_CURVE('',#260,#259,#120,.T.);
#320=EDGE_CURVE('',#261,#260,#121,.T.);
#321=EDGE_CURVE('',#262,#261,#122,.T.);
#322=EDGE_CURVE('',#250,#262,#123,.T.);
#323=EDGE_CURVE('',#263,#263,#124,.T.);
#324=EDGE_CURVE('',#264,#254,#163,.T.);
#325=EDGE_CURVE('',#265,#264,#125,.T.);
#326=EDGE_CURVE('',#255,#265,#164,.T.);
#327=EDGE_CURVE('',#253,#266,#165,.T.);
#328=EDGE_CURVE('',#266,#264,#126,.T.);
#329=EDGE_CURVE('',#267,#252,#166,.F.);
#330=EDGE_CURVE('',#266,#267,#127,.T.);
#331=EDGE_CURVE('',#268,#251,#167,.F.);
#332=EDGE_CURVE('',#269,#268,#168,.T.);
#333=EDGE_CURVE('',#270,#269,#169,.T.);
#334=EDGE_CURVE('',#271,#270,#170,.T.);
#335=EDGE_CURVE('',#271,#272,#22,.F.);
#336=EDGE_CURVE('',#272,#267,#171,.T.);
#337=EDGE_CURVE('',#273,#249,#172,.T.);
#338=EDGE_CURVE('',#268,#273,#173,.T.);
#339=EDGE_CURVE('',#250,#274,#174,.T.);
#340=EDGE_CURVE('',#274,#275,#175,.T.);
#341=EDGE_CURVE('',#276,#275,#23,.T.);
#342=EDGE_CURVE('',#277,#276,#176,.T.);
#343=EDGE_CURVE('',#278,#277,#177,.T.);
#344=EDGE_CURVE('',#273,#278,#178,.T.);
#345=EDGE_CURVE('',#262,#279,#179,.T.);
#346=EDGE_CURVE('',#274,#279,#128,.T.);
#347=EDGE_CURVE('',#280,#281,#129,.T.);
#348=EDGE_CURVE('',#281,#282,#180,.T.);
#349=EDGE_CURVE('',#282,#283,#130,.T.);
#350=EDGE_CURVE('',#283,#280,#181,.T.);
#351=EDGE_CURVE('',#281,#284,#131,.T.);
#352=EDGE_CURVE('',#285,#284,#182,.T.);
#353=EDGE_CURVE('',#282,#285,#132,.T.);
#354=EDGE_CURVE('',#284,#270,#133,.T.);
#355=EDGE_CURVE('',#269,#285,#134,.T.);
#356=EDGE_CURVE('',#286,#287,#135,.T.);
#357=EDGE_CURVE('',#287,#288,#183,.T.);
#358=EDGE_CURVE('',#288,#289,#136,.T.);
#359=EDGE_CURVE('',#289,#286,#184,.T.);
#360=EDGE_CURVE('',#290,#258,#185,.T.);
#361=EDGE_CURVE('',#288,#290,#186,.T.);
#362=EDGE_CURVE('',#291,#287,#187,.T.);
#363=EDGE_CURVE('',#291,#292,#24,.F.);
#364=EDGE_CURVE('',#292,#293,#188,.T.);
#365=EDGE_CURVE('',#294,#293,#25,.T.);
#366=EDGE_CURVE('',#294,#295,#189,.T.);
#367=EDGE_CURVE('',#259,#295,#190,.T.);
#368=EDGE_CURVE('',#277,#296,#137,.T.);
#369=EDGE_CURVE('',#296,#297,#191,.T.);
#370=EDGE_CURVE('',#297,#278,#138,.T.);
#371=EDGE_CURVE('',#297,#289,#139,.T.);
#372=EDGE_CURVE('',#296,#286,#140,.T.);
#373=EDGE_CURVE('',#298,#291,#141,.T.);
#374=EDGE_CURVE('',#298,#299,#26,.T.);
#375=EDGE_CURVE('',#299,#292,#142,.T.);
#376=EDGE_CURVE('',#300,#299,#192,.T.);
#377=EDGE_CURVE('',#293,#300,#143,.T.);
#378=EDGE_CURVE('',#280,#298,#193,.T.);
#379=EDGE_CURVE('',#271,#298,#144,.T.);
#380=EDGE_CURVE('',#275,#272,#145,.T.);
#381=EDGE_CURVE('',#276,#271,#146,.T.);
#382=EDGE_CURVE('',#301,#276,#147,.T.);
#383=EDGE_CURVE('',#291,#301,#148,.T.);
#384=EDGE_CURVE('',#300,#302,#27,.T.);
#385=EDGE_CURVE('',#302,#294,#149,.T.);
#386=EDGE_CURVE('',#303,#302,#194,.T.);
#387=EDGE_CURVE('',#303,#265,#150,.F.);
#388=EDGE_CURVE('',#274,#267,#151,.T.);
#389=EDGE_CURVE('',#304,#279,#152,.T.);
#390=EDGE_CURVE('',#304,#305,#153,.T.);
#391=EDGE_CURVE('',#295,#305,#154,.T.);
#392=EDGE_CURVE('',#306,#306,#155,.T.);
#393=EDGE_CURVE('',#261,#304,#195,.T.);
#394=EDGE_CURVE('',#305,#260,#196,.T.);
#395=EDGE_CURVE('',#303,#256,#197,.T.);
#396=EDGE_CURVE('',#306,#263,#198,.T.);
#397=EDGE_CURVE('',#307,#257,#199,.T.);
#398=EDGE_CURVE('',#290,#307,#200,.T.);
#399=EDGE_CURVE('',#307,#283,#201,.T.);
#400=EDGE_CURVE('',#308,#308,#156,.T.);
#401=EDGE_CURVE('',#308,#301,#202,.T.);
#402=ORIENTED_EDGE('',*,*,#309,.F.);
#403=ORIENTED_EDGE('',*,*,#310,.F.);
#404=ORIENTED_EDGE('',*,*,#311,.F.);
#405=ORIENTED_EDGE('',*,*,#312,.F.);
#406=ORIENTED_EDGE('',*,*,#313,.F.);
#407=ORIENTED_EDGE('',*,*,#314,.F.);
#408=ORIENTED_EDGE('',*,*,#315,.F.);
#409=ORIENTED_EDGE('',*,*,#316,.F.);
#410=ORIENTED_EDGE('',*,*,#317,.F.);
#411=ORIENTED_EDGE('',*,*,#318,.F.);
#412=ORIENTED_EDGE('',*,*,#319,.F.);
#413=ORIENTED_EDGE('',*,*,#320,.F.);
#414=ORIENTED_EDGE('',*,*,#321,.F.);
#415=ORIENTED_EDGE('',*,*,#322,.F.);
#416=ORIENTED_EDGE('',*,*,#323,.F.);
#417=ORIENTED_EDGE('',*,*,#314,.T.);
#418=ORIENTED_EDGE('',*,*,#324,.F.);
#419=ORIENTED_EDGE('',*,*,#325,.F.);
#420=ORIENTED_EDGE('',*,*,#326,.F.);
#421=ORIENTED_EDGE('',*,*,#313,.T.);
#422=ORIENTED_EDGE('',*,*,#327,.T.);
#423=ORIENTED_EDGE('',*,*,#328,.T.);
#424=ORIENTED_EDGE('',*,*,#324,.T.);
#425=ORIENTED_EDGE('',*,*,#312,.T.);
#426=ORIENTED_EDGE('',*,*,#329,.F.);
#427=ORIENTED_EDGE('',*,*,#330,.F.);
#428=ORIENTED_EDGE('',*,*,#327,.F.);
#429=ORIENTED_EDGE('',*,*,#311,.T.);
#430=ORIENTED_EDGE('',*,*,#331,.F.);
#431=ORIENTED_EDGE('',*,*,#332,.F.);
#432=ORIENTED_EDGE('',*,*,#333,.F.);
#433=ORIENTED_EDGE('',*,*,#334,.F.);
#434=ORIENTED_EDGE('',*,*,#335,.T.);
#435=ORIENTED_EDGE('',*,*,#336,.T.);
#436=ORIENTED_EDGE('',*,*,#329,.T.);
#437=ORIENTED_EDGE('',*,*,#310,.T.);
#438=ORIENTED_EDGE('',*,*,#337,.F.);
#439=ORIENTED_EDGE('',*,*,#338,.F.);
#440=ORIENTED_EDGE('',*,*,#331,.T.);
#441=ORIENTED_EDGE('',*,*,#309,.T.);
#442=ORIENTED_EDGE('',*,*,#339,.T.);
#443=ORIENTED_EDGE('',*,*,#340,.T.);
#444=ORIENTED_EDGE('',*,*,#341,.F.);
#445=ORIENTED_EDGE('',*,*,#342,.F.);
#446=ORIENTED_EDGE('',*,*,#343,.F.);
#447=ORIENTED_EDGE('',*,*,#344,.F.);
#448=ORIENTED_EDGE('',*,*,#337,.T.);
#449=ORIENTED_EDGE('',*,*,#322,.T.);
#450=ORIENTED_EDGE('',*,*,#345,.T.);
#451=ORIENTED_EDGE('',*,*,#346,.F.);
#452=ORIENTED_EDGE('',*,*,#339,.F.);
#453=ORIENTED_EDGE('',*,*,#347,.T.);
#454=ORIENTED_EDGE('',*,*,#348,.T.);
#455=ORIENTED_EDGE('',*,*,#349,.T.);
#456=ORIENTED_EDGE('',*,*,#350,.T.);
#457=ORIENTED_EDGE('',*,*,#348,.F.);
#458=ORIENTED_EDGE('',*,*,#351,.T.);
#459=ORIENTED_EDGE('',*,*,#352,.F.);
#460=ORIENTED_EDGE('',*,*,#353,.F.);
#461=ORIENTED_EDGE('',*,*,#354,.T.);
#462=ORIENTED_EDGE('',*,*,#333,.T.);
#463=ORIENTED_EDGE('',*,*,#355,.T.);
#464=ORIENTED_EDGE('',*,*,#352,.T.);
#465=ORIENTED_EDGE('',*,*,#356,.T.);
#466=ORIENTED_EDGE('',*,*,#357,.T.);
#467=ORIENTED_EDGE('',*,*,#358,.T.);
#468=ORIENTED_EDGE('',*,*,#359,.T.);
#469=ORIENTED_EDGE('',*,*,#318,.T.);
#470=ORIENTED_EDGE('',*,*,#360,.F.);
#471=ORIENTED_EDGE('',*,*,#361,.F.);
#472=ORIENTED_EDGE('',*,*,#357,.F.);
#473=ORIENTED_EDGE('',*,*,#362,.F.);
#474=ORIENTED_EDGE('',*,*,#363,.T.);
#475=ORIENTED_EDGE('',*,*,#364,.T.);
#476=ORIENTED_EDGE('',*,*,#365,.F.);
#477=ORIENTED_EDGE('',*,*,#366,.T.);
#478=ORIENTED_EDGE('',*,*,#367,.F.);
#479=ORIENTED_EDGE('',*,*,#368,.T.);
#480=ORIENTED_EDGE('',*,*,#369,.T.);
#481=ORIENTED_EDGE('',*,*,#370,.T.);
#482=ORIENTED_EDGE('',*,*,#343,.T.);
#483=ORIENTED_EDGE('',*,*,#359,.F.);
#484=ORIENTED_EDGE('',*,*,#371,.F.);
#485=ORIENTED_EDGE('',*,*,#369,.F.);
#486=ORIENTED_EDGE('',*,*,#372,.T.);
#487=ORIENTED_EDGE('',*,*,#363,.F.);
#488=ORIENTED_EDGE('',*,*,#373,.F.);
#489=ORIENTED_EDGE('',*,*,#374,.T.);
#490=ORIENTED_EDGE('',*,*,#375,.T.);
#491=ORIENTED_EDGE('',*,*,#375,.F.);
#492=ORIENTED_EDGE('',*,*,#376,.F.);
#493=ORIENTED_EDGE('',*,*,#377,.F.);
#494=ORIENTED_EDGE('',*,*,#364,.F.);
#495=ORIENTED_EDGE('',*,*,#378,.T.);
#496=ORIENTED_EDGE('',*,*,#379,.F.);
#497=ORIENTED_EDGE('',*,*,#334,.T.);
#498=ORIENTED_EDGE('',*,*,#354,.F.);
#499=ORIENTED_EDGE('',*,*,#351,.F.);
#500=ORIENTED_EDGE('',*,*,#347,.F.);
#501=ORIENTED_EDGE('',*,*,#341,.T.);
#502=ORIENTED_EDGE('',*,*,#380,.T.);
#503=ORIENTED_EDGE('',*,*,#335,.F.);
#504=ORIENTED_EDGE('',*,*,#381,.F.);
#505=ORIENTED_EDGE('',*,*,#362,.T.);
#506=ORIENTED_EDGE('',*,*,#356,.F.);
#507=ORIENTED_EDGE('',*,*,#372,.F.);
#508=ORIENTED_EDGE('',*,*,#368,.F.);
#509=ORIENTED_EDGE('',*,*,#342,.T.);
#510=ORIENTED_EDGE('',*,*,#382,.F.);
#511=ORIENTED_EDGE('',*,*,#383,.F.);
#512=ORIENTED_EDGE('',*,*,#384,.T.);
#513=ORIENTED_EDGE('',*,*,#385,.T.);
#514=ORIENTED_EDGE('',*,*,#365,.T.);
#515=ORIENTED_EDGE('',*,*,#377,.T.);
#516=ORIENTED_EDGE('',*,*,#366,.F.);
#517=ORIENTED_EDGE('',*,*,#385,.F.);
#518=ORIENTED_EDGE('',*,*,#386,.F.);
#519=ORIENTED_EDGE('',*,*,#387,.T.);
#520=ORIENTED_EDGE('',*,*,#325,.T.);
#521=ORIENTED_EDGE('',*,*,#328,.F.);
#522=ORIENTED_EDGE('',*,*,#330,.T.);
#523=ORIENTED_EDGE('',*,*,#388,.F.);
#524=ORIENTED_EDGE('',*,*,#346,.T.);
#525=ORIENTED_EDGE('',*,*,#389,.F.);
#526=ORIENTED_EDGE('',*,*,#390,.T.);
#527=ORIENTED_EDGE('',*,*,#391,.F.);
#528=ORIENTED_EDGE('',*,*,#392,.T.);
#529=ORIENTED_EDGE('',*,*,#321,.T.);
#530=ORIENTED_EDGE('',*,*,#393,.T.);
#531=ORIENTED_EDGE('',*,*,#389,.T.);
#532=ORIENTED_EDGE('',*,*,#345,.F.);
#533=ORIENTED_EDGE('',*,*,#319,.T.);
#534=ORIENTED_EDGE('',*,*,#367,.T.);
#535=ORIENTED_EDGE('',*,*,#391,.T.);
#536=ORIENTED_EDGE('',*,*,#394,.T.);
#537=ORIENTED_EDGE('',*,*,#315,.T.);
#538=ORIENTED_EDGE('',*,*,#326,.T.);
#539=ORIENTED_EDGE('',*,*,#387,.F.);
#540=ORIENTED_EDGE('',*,*,#395,.T.);
#541=ORIENTED_EDGE('',*,*,#392,.F.);
#542=ORIENTED_EDGE('',*,*,#396,.T.);
#543=ORIENTED_EDGE('',*,*,#323,.T.);
#544=ORIENTED_EDGE('',*,*,#396,.F.);
#545=ORIENTED_EDGE('',*,*,#320,.T.);
#546=ORIENTED_EDGE('',*,*,#394,.F.);
#547=ORIENTED_EDGE('',*,*,#390,.F.);
#548=ORIENTED_EDGE('',*,*,#393,.F.);
#549=ORIENTED_EDGE('',*,*,#380,.F.);
#550=ORIENTED_EDGE('',*,*,#340,.F.);
#551=ORIENTED_EDGE('',*,*,#388,.T.);
#552=ORIENTED_EDGE('',*,*,#336,.F.);
#553=ORIENTED_EDGE('',*,*,#317,.T.);
#554=ORIENTED_EDGE('',*,*,#397,.F.);
#555=ORIENTED_EDGE('',*,*,#398,.F.);
#556=ORIENTED_EDGE('',*,*,#360,.T.);
#557=ORIENTED_EDGE('',*,*,#316,.T.);
#558=ORIENTED_EDGE('',*,*,#395,.F.);
#559=ORIENTED_EDGE('',*,*,#386,.T.);
#560=ORIENTED_EDGE('',*,*,#384,.F.);
#561=ORIENTED_EDGE('',*,*,#376,.T.);
#562=ORIENTED_EDGE('',*,*,#374,.F.);
#563=ORIENTED_EDGE('',*,*,#378,.F.);
#564=ORIENTED_EDGE('',*,*,#350,.F.);
#565=ORIENTED_EDGE('',*,*,#399,.F.);
#566=ORIENTED_EDGE('',*,*,#397,.T.);
#567=ORIENTED_EDGE('',*,*,#400,.F.);
#568=ORIENTED_EDGE('',*,*,#401,.T.);
#569=ORIENTED_EDGE('',*,*,#382,.T.);
#570=ORIENTED_EDGE('',*,*,#381,.T.);
#571=ORIENTED_EDGE('',*,*,#379,.T.);
#572=ORIENTED_EDGE('',*,*,#373,.T.);
#573=ORIENTED_EDGE('',*,*,#383,.T.);
#574=ORIENTED_EDGE('',*,*,#401,.F.);
#575=ORIENTED_EDGE('',*,*,#353,.T.);
#576=ORIENTED_EDGE('',*,*,#355,.F.);
#577=ORIENTED_EDGE('',*,*,#332,.T.);
#578=ORIENTED_EDGE('',*,*,#338,.T.);
#579=ORIENTED_EDGE('',*,*,#344,.T.);
#580=ORIENTED_EDGE('',*,*,#370,.F.);
#581=ORIENTED_EDGE('',*,*,#371,.T.);
#582=ORIENTED_EDGE('',*,*,#358,.F.);
#583=ORIENTED_EDGE('',*,*,#361,.T.);
#584=ORIENTED_EDGE('',*,*,#398,.T.);
#585=ORIENTED_EDGE('',*,*,#399,.T.);
#586=ORIENTED_EDGE('',*,*,#349,.F.);
#587=ORIENTED_EDGE('',*,*,#400,.T.);
#588=PLANE('',#646);
#589=PLANE('',#662);
#590=PLANE('',#663);
#591=PLANE('',#664);
#592=PLANE('',#679);
#593=PLANE('',#691);
#594=PLANE('',#696);
#595=PLANE('',#701);
#596=PLANE('',#714);
#597=PLANE('',#715);
#598=PLANE('',#718);
#599=ADVANCED_FACE('',(#49,#46),#588,.T.);
#600=ADVANCED_FACE('',(#50),#28,.T.);
#601=ADVANCED_FACE('',(#51),#29,.F.);
#602=ADVANCED_FACE('',(#52),#30,.T.);
#603=ADVANCED_FACE('',(#53),#589,.T.);
#604=ADVANCED_FACE('',(#54),#590,.T.);
#605=ADVANCED_FACE('',(#55),#591,.T.);
#606=ADVANCED_FACE('',(#56),#31,.T.);
#607=ADVANCED_FACE('',(#57),#32,.F.);
#608=ADVANCED_FACE('',(#58),#33,.T.);
#609=ADVANCED_FACE('',(#59),#34,.F.);
#610=ADVANCED_FACE('',(#60),#35,.F.);
#611=ADVANCED_FACE('',(#61),#592,.T.);
#612=ADVANCED_FACE('',(#62),#36,.F.);
#613=ADVANCED_FACE('',(#63),#37,.T.);
#614=ADVANCED_FACE('',(#64),#19,.F.);
#615=ADVANCED_FACE('',(#65),#38,.F.);
#616=ADVANCED_FACE('',(#66),#593,.T.);
#617=ADVANCED_FACE('',(#67),#20,.F.);
#618=ADVANCED_FACE('',(#68),#594,.T.);
#619=ADVANCED_FACE('',(#69),#21,.F.);
#620=ADVANCED_FACE('',(#70,#47),#595,.F.);
#621=ADVANCED_FACE('',(#71),#39,.F.);
#622=ADVANCED_FACE('',(#72),#40,.F.);
#623=ADVANCED_FACE('',(#73),#41,.F.);
#624=ADVANCED_FACE('',(#74),#42,.F.);
#625=ADVANCED_FACE('',(#75),#43,.T.);
#626=ADVANCED_FACE('',(#76),#44,.F.);
#627=ADVANCED_FACE('',(#77),#596,.T.);
#628=ADVANCED_FACE('',(#78),#597,.T.);
#629=ADVANCED_FACE('',(#79),#45,.F.);
#630=ADVANCED_FACE('',(#80,#48),#598,.F.);
#631=CLOSED_SHELL('',(#599,#600,#601,#602,#603,#604,#605,#606,#607,#608,
#609,#610,#611,#612,#613,#614,#615,#616,#617,#618,#619,#620,#621,#622,#623,
#624,#625,#626,#627,#628,#629,#630));
#632=DERIVED_UNIT_ELEMENT(#634,1.);
#633=DERIVED_UNIT_ELEMENT(#1175,-3.);
#634=(
MASS_UNIT()
NAMED_UNIT(*)
SI_UNIT(.KILO.,.GRAM.)
);
#635=DERIVED_UNIT((#632,#633));
#636=MEASURE_REPRESENTATION_ITEM('density measure',
POSITIVE_RATIO_MEASURE(7850.),#635);
#637=PROPERTY_DEFINITION_REPRESENTATION(#642,#639);
#638=PROPERTY_DEFINITION_REPRESENTATION(#643,#640);
#639=REPRESENTATION('material name',(#641),#1172);
#640=REPRESENTATION('density',(#636),#1172);
#641=DESCRIPTIVE_REPRESENTATION_ITEM('Steel','Steel');
#642=PROPERTY_DEFINITION('material property','material name',#1187);
#643=PROPERTY_DEFINITION('material property','density of part',#1187);
#644=AXIS2_PLACEMENT_3D('',#918,#720,#721);
#645=AXIS2_PLACEMENT_3D('',#919,#722,#723);
#646=AXIS2_PLACEMENT_3D('',#920,#724,#725);
#647=AXIS2_PLACEMENT_3D('',#929,#729,#730);
#648=AXIS2_PLACEMENT_3D('',#931,#731,#732);
#649=AXIS2_PLACEMENT_3D('',#933,#733,#734);
#650=AXIS2_PLACEMENT_3D('',#935,#735,#736);
#651=AXIS2_PLACEMENT_3D('',#943,#740,#741);
#652=AXIS2_PLACEMENT_3D('',#945,#742,#743);
#653=AXIS2_PLACEMENT_3D('',#947,#744,#745);
#654=AXIS2_PLACEMENT_3D('',#948,#746,#747);
#655=AXIS2_PLACEMENT_3D('',#950,#748,#749);
#656=AXIS2_PLACEMENT_3D('',#951,#750,#751);
#657=AXIS2_PLACEMENT_3D('',#955,#753,#754);
#658=AXIS2_PLACEMENT_3D('',#957,#756,#757);
#659=AXIS2_PLACEMENT_3D('',#960,#759,#760);
#660=AXIS2_PLACEMENT_3D('',#961,#761,#762);
#661=AXIS2_PLACEMENT_3D('',#964,#764,#765);
#662=AXIS2_PLACEMENT_3D('',#965,#766,#767);
#663=AXIS2_PLACEMENT_3D('',#986,#773,#774);
#664=AXIS2_PLACEMENT_3D('',#990,#777,#778);
#665=AXIS2_PLACEMENT_3D('',#1011,#784,#785);
#666=AXIS2_PLACEMENT_3D('',#1014,#787,#788);
#667=AXIS2_PLACEMENT_3D('',#1015,#789,#790);
#668=AXIS2_PLACEMENT_3D('',#1018,#791,#792);
#669=AXIS2_PLACEMENT_3D('',#1022,#794,#795);
#670=AXIS2_PLACEMENT_3D('',#1024,#797,#798);
#671=AXIS2_PLACEMENT_3D('',#1026,#799,#800);
#672=AXIS2_PLACEMENT_3D('',#1029,#802,#803);
#673=AXIS2_PLACEMENT_3D('',#1030,#804,#805);
#674=AXIS2_PLACEMENT_3D('',#1031,#806,#807);
#675=AXIS2_PLACEMENT_3D('',#1032,#808,#809);
#676=AXIS2_PLACEMENT_3D('',#1033,#810,#811);
#677=AXIS2_PLACEMENT_3D('',#1036,#812,#813);
#678=AXIS2_PLACEMENT_3D('',#1040,#815,#816);
#679=AXIS2_PLACEMENT_3D('',#1042,#818,#819);
#680=AXIS2_PLACEMENT_3D('',#1079,#826,#827);
#681=AXIS2_PLACEMENT_3D('',#1081,#828,#829);
#682=AXIS2_PLACEMENT_3D('',#1084,#831,#832);
#683=AXIS2_PLACEMENT_3D('',#1085,#833,#834);
#684=AXIS2_PLACEMENT_3D('',#1086,#835,#836);
#685=AXIS2_PLACEMENT_3D('',#1087,#837,#838);
#686=AXIS2_PLACEMENT_3D('',#1088,#839,#840);
#687=AXIS2_PLACEMENT_3D('',#1090,#841,#842);
#688=AXIS2_PLACEMENT_3D('',#1104,#843,#844);
#689=AXIS2_PLACEMENT_3D('',#1105,#845,#846);
#690=AXIS2_PLACEMENT_3D('',#1108,#848,#849);
#691=AXIS2_PLACEMENT_3D('',#1109,#850,#851);
#692=AXIS2_PLACEMENT_3D('',#1111,#853,#854);
#693=AXIS2_PLACEMENT_3D('',#1112,#855,#856);
#694=AXIS2_PLACEMENT_3D('',#1113,#857,#858);
#695=AXIS2_PLACEMENT_3D('',#1114,#859,#860);
#696=AXIS2_PLACEMENT_3D('',#1115,#861,#862);
#697=AXIS2_PLACEMENT_3D('',#1117,#863,#864);
#698=AXIS2_PLACEMENT_3D('',#1118,#865,#866);
#699=AXIS2_PLACEMENT_3D('',#1119,#867,#868);
#700=AXIS2_PLACEMENT_3D('',#1133,#869,#870);
#701=AXIS2_PLACEMENT_3D('',#1134,#871,#872);
#702=AXIS2_PLACEMENT_3D('',#1137,#874,#875);
#703=AXIS2_PLACEMENT_3D('',#1138,#876,#877);
#704=AXIS2_PLACEMENT_3D('',#1140,#878,#879);
#705=AXIS2_PLACEMENT_3D('',#1142,#880,#881);
#706=AXIS2_PLACEMENT_3D('',#1143,#882,#883);
#707=AXIS2_PLACEMENT_3D('',#1145,#884,#885);
#708=AXIS2_PLACEMENT_3D('',#1146,#886,#887);
#709=AXIS2_PLACEMENT_3D('',#1148,#889,#890);
#710=AXIS2_PLACEMENT_3D('',#1150,#892,#893);
#711=AXIS2_PLACEMENT_3D('',#1152,#895,#896);
#712=AXIS2_PLACEMENT_3D('',#1154,#898,#899);
#713=AXIS2_PLACEMENT_3D('',#1155,#900,#901);
#714=AXIS2_PLACEMENT_3D('',#1156,#902,#903);
#715=AXIS2_PLACEMENT_3D('',#1160,#906,#907);
#716=AXIS2_PLACEMENT_3D('',#1162,#909,#910);
#717=AXIS2_PLACEMENT_3D('',#1164,#911,#912);
#718=AXIS2_PLACEMENT_3D('',#1166,#914,#915);
#719=AXIS2_PLACEMENT_3D('',#1167,#916,#917);
#720=DIRECTION('axis',(0.,0.,1.));
#721=DIRECTION('refdir',(1.,0.,0.));
#722=DIRECTION('axis',(0.,0.,1.));
#723=DIRECTION('refdir',(1.,0.,0.));
#724=DIRECTION('center_axis',(0.,1.,0.));
#725=DIRECTION('ref_axis',(-1.,0.,0.));
#726=DIRECTION('',(8.83095234200802E-16,0.,1.));
#727=DIRECTION('',(0.998817054155601,0.,-0.0486260457772169));
#728=DIRECTION('',(-0.580585930237278,0.,-0.814198979126426));
#729=DIRECTION('center_axis',(0.,-1.,0.));
#730=DIRECTION('ref_axis',(-1.,0.,0.));
#731=DIRECTION('center_axis',(0.,1.,0.));
#732=DIRECTION('ref_axis',(0.678404052689069,0.,0.734689009918514));
#733=DIRECTION('center_axis',(0.,-1.,0.));
#734=DIRECTION('ref_axis',(-1.,0.,0.));
#735=DIRECTION('center_axis',(0.,1.,0.));
#736=DIRECTION('ref_axis',(0.924206240631691,0.,-0.381893734928234));
#737=DIRECTION('',(1.01129402362707E-16,0.,-1.));
#738=DIRECTION('',(-0.999999873384245,0.,-0.000503221118570528));
#739=DIRECTION('',(0.,0.,1.));
#740=DIRECTION('center_axis',(0.,1.,0.));
#741=DIRECTION('ref_axis',(-0.938688948706915,0.,-0.344765220948265));
#742=DIRECTION('center_axis',(0.,-1.,0.));
#743=DIRECTION('ref_axis',(-1.,0.,0.));
#744=DIRECTION('center_axis',(0.,1.,0.));
#745=DIRECTION('ref_axis',(-0.683151637701279,0.,0.730276550291779));
#746=DIRECTION('center_axis',(0.,-1.,0.));
#747=DIRECTION('ref_axis',(-1.,0.,0.));
#748=DIRECTION('center_axis',(0.,1.,0.));
#749=DIRECTION('ref_axis',(-1.,0.,0.));
#750=DIRECTION('center_axis',(0.,-1.,0.));
#751=DIRECTION('ref_axis',(-1.,0.,0.));
#752=DIRECTION('',(0.,1.,0.));
#753=DIRECTION('center_axis',(0.,-1.,0.));
#754=DIRECTION('ref_axis',(-1.,0.,0.));
#755=DIRECTION('',(0.,-1.,0.));
#756=DIRECTION('center_axis',(0.,-1.,0.));
#757=DIRECTION('ref_axis',(0.678404052689069,0.,0.734689009918514));
#758=DIRECTION('',(0.,-1.,0.));
#759=DIRECTION('center_axis',(0.,-1.,0.));
#760=DIRECTION('ref_axis',(0.678404052689069,0.,0.734689009918514));
#761=DIRECTION('center_axis',(0.,-1.,0.));
#762=DIRECTION('ref_axis',(-1.,0.,0.));
#763=DIRECTION('',(0.,-1.,0.));
#764=DIRECTION('center_axis',(0.,-1.,0.));
#765=DIRECTION('ref_axis',(-1.,0.,0.));
#766=DIRECTION('center_axis',(-0.814198979126426,0.,0.580585930237278));
#767=DIRECTION('ref_axis',(-0.580585930237278,0.,-0.814198979126426));
#768=DIRECTION('',(0.,-1.,0.));
#769=DIRECTION('',(-0.580585930237278,0.,-0.814198979126426));
#770=DIRECTION('',(0.,-1.,0.));
#771=DIRECTION('',(-0.580585930237278,0.,-0.814198979126426));
#772=DIRECTION('',(0.,1.,0.));
#773=DIRECTION('center_axis',(-0.0486260457772169,0.,-0.998817054155601));
#774=DIRECTION('ref_axis',(0.998817054155601,0.,-0.0486260457772169));
#775=DIRECTION('',(0.,1.,0.));
#776=DIRECTION('',(0.998817054155601,0.,-0.0486260457772169));
#777=DIRECTION('center_axis',(1.,0.,-8.83095234200802E-16));
#778=DIRECTION('ref_axis',(8.83095234200802E-16,0.,1.));
#779=DIRECTION('',(0.,-1.,0.));
#780=DIRECTION('',(0.,-1.,0.));
#781=DIRECTION('',(8.83095234200802E-16,0.,1.));
#782=DIRECTION('',(0.,1.,0.));
#783=DIRECTION('',(8.83095234200802E-16,0.,1.));
#784=DIRECTION('center_axis',(0.,-1.,0.));
#785=DIRECTION('ref_axis',(-1.,0.,0.));
#786=DIRECTION('',(0.,-1.,0.));
#787=DIRECTION('center_axis',(0.,-1.,0.));
#788=DIRECTION('ref_axis',(-1.,0.,0.));
#789=DIRECTION('center_axis',(0.,-1.,0.));
#790=DIRECTION('ref_axis',(0.907697262974746,0.,-0.419625641242471));
#791=DIRECTION('center_axis',(0.,1.,0.));
#792=DIRECTION('ref_axis',(0.907697262974746,0.,-0.419625641242471));
#793=DIRECTION('',(0.,-1.,0.));
#794=DIRECTION('center_axis',(0.,-1.,0.));
#795=DIRECTION('ref_axis',(0.907697262974746,0.,-0.419625641242471));
#796=DIRECTION('',(0.,1.,0.));
#797=DIRECTION('center_axis',(0.,-1.,0.));
#798=DIRECTION('ref_axis',(-1.,0.,0.));
#799=DIRECTION('center_axis',(0.,-1.,0.));
#800=DIRECTION('ref_axis',(-1.,0.,0.));
#801=DIRECTION('',(0.,1.,0.));
#802=DIRECTION('center_axis',(0.,-1.,0.));
#803=DIRECTION('ref_axis',(-1.,0.,0.));
#804=DIRECTION('center_axis',(0.,-1.,0.));
#805=DIRECTION('ref_axis',(0.99557733487048,0.,0.0939455709024799));
#806=DIRECTION('center_axis',(0.,1.,0.));
#807=DIRECTION('ref_axis',(0.99557733487048,0.,0.0939455709024799));
#808=DIRECTION('center_axis',(0.,-1.,0.));
#809=DIRECTION('ref_axis',(0.99557733487048,0.,0.0939455709024799));
#810=DIRECTION('center_axis',(0.,-1.,0.));
#811=DIRECTION('ref_axis',(-0.923853361538976,0.,-0.382746608571695));
#812=DIRECTION('center_axis',(0.,1.,0.));
#813=DIRECTION('ref_axis',(-0.923853361538976,0.,-0.382746608571695));
#814=DIRECTION('',(0.,-1.,0.));
#815=DIRECTION('center_axis',(0.,-1.,0.));
#816=DIRECTION('ref_axis',(-0.923853361538976,0.,-0.382746608571695));
#817=DIRECTION('',(0.,1.,0.));
#818=DIRECTION('center_axis',(1.,0.,0.));
#819=DIRECTION('ref_axis',(0.,0.,1.));
#820=DIRECTION('',(0.,1.,0.));
#821=DIRECTION('',(0.,0.,1.));
#822=DIRECTION('',(0.,0.,1.));
#823=DIRECTION('',(0.,1.,0.));
#824=DIRECTION('',(0.,0.,1.));
#825=DIRECTION('',(0.,-1.,0.));
#826=DIRECTION('center_axis',(0.,-1.,0.));
#827=DIRECTION('ref_axis',(-0.900829591599489,0.,0.434172830677713));
#828=DIRECTION('center_axis',(0.,1.,0.));
#829=DIRECTION('ref_axis',(-0.900829591599489,0.,0.434172830677713));
#830=DIRECTION('',(0.,-1.,0.));
#831=DIRECTION('center_axis',(0.,-1.,0.));
#832=DIRECTION('ref_axis',(-0.900829591599489,0.,0.434172830677713));
#833=DIRECTION('center_axis',(0.,-1.,0.));
#834=DIRECTION('ref_axis',(0.998412624848838,0.,-0.0563225580247663));
#835=DIRECTION('center_axis',(0.,-1.,0.));
#836=DIRECTION('ref_axis',(-1.,0.,0.));
#837=DIRECTION('center_axis',(0.,-1.,0.));
#838=DIRECTION('ref_axis',(-1.,0.,0.));
#839=DIRECTION('center_axis',(0.,1.,0.));
#840=DIRECTION('ref_axis',(0.,0.,1.));
#841=DIRECTION('center_axis',(0.,1.,0.));
#842=DIRECTION('ref_axis',(-1.,0.,0.));
#843=DIRECTION('center_axis',(0.,1.,0.));
#844=DIRECTION('ref_axis',(0.0458928546106357,0.,0.998946367877519));
#845=DIRECTION('center_axis',(0.,-1.,0.));
#846=DIRECTION('ref_axis',(-1.,0.,0.));
#847=DIRECTION('',(0.,-1.,0.));
#848=DIRECTION('center_axis',(0.,-1.,0.));
#849=DIRECTION('ref_axis',(0.0458928546106357,0.,0.998946367877519));
#850=DIRECTION('center_axis',(0.,1.,0.));
#851=DIRECTION('ref_axis',(-1.,0.,0.));
#852=DIRECTION('',(1.01129402362707E-16,0.,-1.));
#853=DIRECTION('center_axis',(0.,1.,0.));
#854=DIRECTION('ref_axis',(-1.,0.,0.));
#855=DIRECTION('center_axis',(0.,1.,0.));
#856=DIRECTION('ref_axis',(0.109433812499602,0.,-0.993994084832401));
#857=DIRECTION('center_axis',(0.,1.,0.));
#858=DIRECTION('ref_axis',(0.00226789471237938,0.,-0.99999742832348));
#859=DIRECTION('center_axis',(0.,1.,0.));
#860=DIRECTION('ref_axis',(-1.,0.,0.));
#861=DIRECTION('center_axis',(0.,1.,0.));
#862=DIRECTION('ref_axis',(-1.,0.,0.));
#863=DIRECTION('center_axis',(0.,1.,0.));
#864=DIRECTION('ref_axis',(-1.,0.,0.));
#865=DIRECTION('center_axis',(0.,1.,0.));
#866=DIRECTION('ref_axis',(-1.,0.,0.));
#867=DIRECTION('center_axis',(0.,1.,0.));
#868=DIRECTION('ref_axis',(0.,0.,1.));
#869=DIRECTION('center_axis',(0.,1.,0.));
#870=DIRECTION('ref_axis',(0.0458928546106357,0.,0.998946367877519));
#871=DIRECTION('center_axis',(0.,1.,0.));
#872=DIRECTION('ref_axis',(-1.,0.,0.));
#873=DIRECTION('',(1.01129402362707E-16,0.,-1.));
#874=DIRECTION('center_axis',(0.,-1.,0.));
#875=DIRECTION('ref_axis',(0.924206240631691,0.,-0.381893734928234));
#876=DIRECTION('center_axis',(0.,1.,0.));
#877=DIRECTION('ref_axis',(-1.,0.,0.));
#878=DIRECTION('center_axis',(0.,-1.,0.));
#879=DIRECTION('ref_axis',(-0.683151637701279,0.,0.730276550291779));
#880=DIRECTION('center_axis',(0.,-1.,0.));
#881=DIRECTION('ref_axis',(-1.,0.,0.));
#882=DIRECTION('center_axis',(0.,-1.,0.));
#883=DIRECTION('ref_axis',(-0.938688948706915,0.,-0.344765220948265));
#884=DIRECTION('center_axis',(0.,1.,0.));
#885=DIRECTION('ref_axis',(-1.,0.,0.));
#886=DIRECTION('center_axis',(0.,1.,0.));
#887=DIRECTION('ref_axis',(-0.683151637701279,0.,0.730276550291779));
#888=DIRECTION('',(0.,-1.,0.));
#889=DIRECTION('center_axis',(0.,-1.,0.));
#890=DIRECTION('ref_axis',(-0.938688948706915,0.,-0.344765220948265));
#891=DIRECTION('',(0.,1.,0.));
#892=DIRECTION('center_axis',(0.,-1.,0.));
#893=DIRECTION('ref_axis',(0.924206240631691,0.,-0.381893734928234));
#894=DIRECTION('',(0.,1.,0.));
#895=DIRECTION('center_axis',(0.,-1.,0.));
#896=DIRECTION('ref_axis',(-1.,0.,0.));
#897=DIRECTION('',(0.,1.,0.));
#898=DIRECTION('center_axis',(0.,-1.,0.));
#899=DIRECTION('ref_axis',(0.998354524543607,0.,-0.057343206426816));
#900=DIRECTION('center_axis',(0.,-1.,0.));
#901=DIRECTION('ref_axis',(-1.,0.,0.));
#902=DIRECTION('center_axis',(-0.000503221118570528,0.,0.999999873384245));
#903=DIRECTION('ref_axis',(-0.999999873384245,0.,-0.000503221118570528));
#904=DIRECTION('',(0.,1.,0.));
#905=DIRECTION('',(-0.999999873384245,0.,-0.000503221118570528));
#906=DIRECTION('center_axis',(-1.,0.,-1.01129402362707E-16));
#907=DIRECTION('ref_axis',(1.01129402362707E-16,0.,-1.));
#908=DIRECTION('',(1.01129402362707E-16,0.,-1.));
#909=DIRECTION('center_axis',(0.,-1.,0.));
#910=DIRECTION('ref_axis',(-1.,0.,0.));
#911=DIRECTION('center_axis',(0.,1.,0.));
#912=DIRECTION('ref_axis',(-1.,0.,0.));
#913=DIRECTION('',(0.,1.,0.));
#914=DIRECTION('center_axis',(0.,1.,0.));
#915=DIRECTION('ref_axis',(-1.,0.,0.));
#916=DIRECTION('',(0.,0.,1.));
#917=DIRECTION('',(1.,0.,0.));
#918=CARTESIAN_POINT('',(0.,0.,0.));
#919=CARTESIAN_POINT('',(0.,0.,0.));
#920=CARTESIAN_POINT('Origin',(-0.843687453859635,99.097,17.9334951397151));
#921=CARTESIAN_POINT('',(6.65631254614036,99.097,13.5292984260574));
#922=CARTESIAN_POINT('',(6.65631254614037,99.097,22.3296643111811));
#923=CARTESIAN_POINT('',(6.65631254614036,99.097,15.7313967828862));
#924=CARTESIAN_POINT('',(-12.2072820080931,99.097,14.4476467947609));
#925=CARTESIAN_POINT('',(-4.69177327408004,99.097,14.0817645040864));
#926=CARTESIAN_POINT('',(-6.60825402338514,99.097,22.2995815934331));
#927=CARTESIAN_POINT('',(-6.64871727092388,99.097,22.2428369616355));
#928=CARTESIAN_POINT('',(-7.01608358749915,99.097,22.5647319467679));
#929=CARTESIAN_POINT('Origin',(3.08148791101958E-32,99.097,32.91));
#930=CARTESIAN_POINT('',(-8.14084863226883,99.097,24.0937318809778));
#931=CARTESIAN_POINT('Origin',(-11.5328688957142,99.097,20.4202868313853));
#932=CARTESIAN_POINT('',(-8.49977220534154,99.097,41.3807657538916));
#933=CARTESIAN_POINT('Origin',(2.22044604925031E-15,99.097,32.91));
#934=CARTESIAN_POINT('',(-7.04134395756719,99.097,44.9102514846798));
#935=CARTESIAN_POINT('Origin',(-12.0413439575672,99.097,44.9102514846798));
#936=CARTESIAN_POINT('',(-7.04134395756719,99.097,54.2163332848029));
#937=CARTESIAN_POINT('',(-7.04134395756719,99.097,36.074914212259));
#938=CARTESIAN_POINT('',(7.95865604243281,99.097,54.2238816025372));
#939=CARTESIAN_POINT('',(3.54835436552343,99.097,54.2216622453131));
#940=CARTESIAN_POINT('',(7.95865604243281,99.097,43.9133282952895));
#941=CARTESIAN_POINT('',(7.95865604243281,99.097,30.2412339013624));
#942=CARTESIAN_POINT('',(9.14728661818787,99.097,40.6770552672632));
#943=CARTESIAN_POINT('Origin',(12.9586560424328,99.097,43.9133282952895));
#944=CARTESIAN_POINT('',(8.19781965241535,99.097,24.1466813964986));
#945=CARTESIAN_POINT('Origin',(2.22044604925031E-15,99.097,32.91));
#946=CARTESIAN_POINT('',(7.0829883151105,99.097,22.6104234782197));
#947=CARTESIAN_POINT('Origin',(11.6135778409217,99.097,20.4952986450398));
#948=CARTESIAN_POINT('Origin',(3.08148791101958E-32,99.097,32.91));
#949=CARTESIAN_POINT('',(5.,99.097,32.91));
#950=CARTESIAN_POINT('Origin',(2.22044604925031E-15,99.097,32.91));
#951=CARTESIAN_POINT('Origin',(2.22044604925031E-15,109.097,32.91));
#952=CARTESIAN_POINT('',(-8.14084863226883,89.097,24.0937318809778));
#953=CARTESIAN_POINT('',(-8.14084863226883,109.097,24.0937318809778));
#954=CARTESIAN_POINT('',(-8.49977220534154,89.097,41.3807657538916));
#955=CARTESIAN_POINT('Origin',(2.22044604925031E-15,89.097,32.91));
#956=CARTESIAN_POINT('',(-8.49977220534154,109.097,41.3807657538916));
#957=CARTESIAN_POINT('Origin',(-11.5328688957142,109.097,20.4202868313853));
#958=CARTESIAN_POINT('',(-7.01608358749915,89.097,22.5647319467679));
#959=CARTESIAN_POINT('',(-7.01608358749915,109.097,22.5647319467679));
#960=CARTESIAN_POINT('Origin',(-11.5328688957142,89.097,20.4202868313853));
#961=CARTESIAN_POINT('Origin',(3.08148791101958E-32,109.097,32.91));
#962=CARTESIAN_POINT('',(-6.60825402338514,89.097,22.2995815934331));
#963=CARTESIAN_POINT('',(-6.60825402338514,109.097,22.2995815934331));
#964=CARTESIAN_POINT('Origin',(3.08148791101958E-32,89.097,32.91));
#965=CARTESIAN_POINT('Origin',(-6.56839722761568,0.78999999999998,22.3554757526551));
#966=CARTESIAN_POINT('',(-12.2072820080931,-24.71,14.4476467947609));
#967=CARTESIAN_POINT('',(-12.2072820080931,0.78999999999998,14.4476467947609));
#968=CARTESIAN_POINT('',(-8.27135358766668,-24.71,19.9672929572441));
#969=CARTESIAN_POINT('',(-6.56839722761568,-24.71,22.3554757526551));
#970=CARTESIAN_POINT('',(-8.27135358766668,-13.21,19.9672929572441));
#971=CARTESIAN_POINT('',(-8.27135358766668,0.78999999999998,19.9672929572441));
#972=CARTESIAN_POINT('',(-4.86201874886381,-13.21,24.7484576405132));
#973=CARTESIAN_POINT('',(-2.73827228569481,-13.21,27.7267458011114));
#974=CARTESIAN_POINT('',(-6.60825402338514,-10.21,22.2995815934331));
#975=CARTESIAN_POINT('Ctrl Pts',(-6.60825402338514,-10.21,22.2995815934331));
#976=CARTESIAN_POINT('Ctrl Pts',(-6.60825402338514,-10.5799644299043,22.2995815934331));
#977=CARTESIAN_POINT('Ctrl Pts',(-6.55790559183694,-11.0153696825707,22.3701889564989));
#978=CARTESIAN_POINT('Ctrl Pts',(-6.39327506314285,-11.6992088927124,22.6010626332705));
#979=CARTESIAN_POINT('Ctrl Pts',(-6.24978629958266,-12.0685483893257,22.802287634984));
#980=CARTESIAN_POINT('Ctrl Pts',(-5.94528417434462,-12.5923681484469,23.2293136902129));
#981=CARTESIAN_POINT('Ctrl Pts',(-5.73029597075064,-12.8393512469182,23.5308076926923));
#982=CARTESIAN_POINT('Ctrl Pts',(-5.33186532406023,-13.1232036506959,24.0895567234438));
#983=CARTESIAN_POINT('Ctrl Pts',(-5.07783539976569,-13.21,24.4458018445469));
#984=CARTESIAN_POINT('Ctrl Pts',(-4.86201874886381,-13.21,24.7484576405132));
#985=CARTESIAN_POINT('',(-6.60825402338514,0.78999999999998,22.2995815934331));
#986=CARTESIAN_POINT('Origin',(-8.34368745385964,0.78999999999998,14.259552964287));
#987=CARTESIAN_POINT('',(6.65631254614036,-24.71,13.5292984260574));
#988=CARTESIAN_POINT('',(6.65631254614036,0.78999999999998,13.5292984260574));
#989=CARTESIAN_POINT('',(-8.34368745385964,-24.71,14.259552964287));
#990=CARTESIAN_POINT('Origin',(6.65631254614036,0.78999999999998,13.5292984260574));
#991=CARTESIAN_POINT('',(6.65631254614037,89.097,22.3296643111811));
#992=CARTESIAN_POINT('',(6.65631254614037,0.78999999999998,22.3296643111811));
#993=CARTESIAN_POINT('',(6.65631254614037,-10.21,22.3296643111811));
#994=CARTESIAN_POINT('',(6.65631254614037,0.78999999999998,22.3296643111811));
#995=CARTESIAN_POINT('',(6.65631254614037,-13.21,26.1318362893705));
#996=CARTESIAN_POINT('Ctrl Pts',(6.65631254614038,-13.21,26.1318362893705));
#997=CARTESIAN_POINT('Ctrl Pts',(6.65631254614038,-13.21,25.6218423542643));
#998=CARTESIAN_POINT('Ctrl Pts',(6.65631254614037,-13.1246206672183,25.0158345478205));
#999=CARTESIAN_POINT('Ctrl Pts',(6.65631254614037,-12.8261709864736,24.1418763194924));
#1000=CARTESIAN_POINT('Ctrl Pts',(6.65631254614037,-12.5934700466437,23.703599317088));
#1001=CARTESIAN_POINT('Ctrl Pts',(6.65631254614037,-12.0753005586707,23.0714679129463));
#1002=CARTESIAN_POINT('Ctrl Pts',(6.65631254614037,-11.6998535165455,22.7650450279246));
#1003=CARTESIAN_POINT('Ctrl Pts',(6.65631254614037,-11.0055074776328,22.4304542320608));
#1004=CARTESIAN_POINT('Ctrl Pts',(6.65631254614037,-10.5769086209904,22.3296643111811));
#1005=CARTESIAN_POINT('Ctrl Pts',(6.65631254614037,-10.21,22.3296643111811));
#1006=CARTESIAN_POINT('',(6.65631254614037,-13.21,20.7854122539671));
#1007=CARTESIAN_POINT('',(6.65631254614037,-13.21,23.7029442201773));
#1008=CARTESIAN_POINT('',(6.65631254614037,-24.71,20.7854122539671));
#1009=CARTESIAN_POINT('',(6.65631254614037,0.78999999999998,20.7854122539671));
#1010=CARTESIAN_POINT('',(6.65631254614037,-24.71,22.3296643111811));
#1011=CARTESIAN_POINT('Origin',(3.08148791101958E-32,109.097,32.91));
#1012=CARTESIAN_POINT('',(7.0829883151105,89.097,22.6104234782197));
#1013=CARTESIAN_POINT('',(7.0829883151105,109.097,22.6104234782197));
#1014=CARTESIAN_POINT('Origin',(3.08148791101958E-32,89.097,32.91));
#1015=CARTESIAN_POINT('Origin',(-10.0413439575672,0.78999999999998,44.7176844269242));
#1016=CARTESIAN_POINT('',(-7.04134395756719,-13.21,44.7176844269242));
#1017=CARTESIAN_POINT('',(-8.09785803029612,-13.21,42.4323261507453));
#1018=CARTESIAN_POINT('Origin',(-10.0413439575672,-13.21,44.7176844269242));
#1019=CARTESIAN_POINT('',(-8.09785803029612,-24.71,42.4323261507453));
#1020=CARTESIAN_POINT('',(-8.09785803029612,0.78999999999998,42.4323261507453));
#1021=CARTESIAN_POINT('',(-7.04134395756719,-24.71,44.7176844269242));
#1022=CARTESIAN_POINT('Origin',(-10.0413439575672,-24.71,44.7176844269242));
#1023=CARTESIAN_POINT('',(-7.04134395756719,0.78999999999998,44.7176844269242));
#1024=CARTESIAN_POINT('Origin',(3.08148791101958E-32,0.78999999999998,32.91));
#1025=CARTESIAN_POINT('',(-8.64028268148867,-13.21,23.8769764096418));
#1026=CARTESIAN_POINT('Origin',(3.08148791101958E-32,-13.21,32.91));
#1027=CARTESIAN_POINT('',(-8.64028268148867,-24.71,23.8769764096418));
#1028=CARTESIAN_POINT('',(-8.64028268148867,0.78999999999998,23.8769764096418));
#1029=CARTESIAN_POINT('Origin',(3.08148791101958E-32,-24.71,32.91));
#1030=CARTESIAN_POINT('Origin',(-10.713950525046,0.78999999999998,21.7090507479559));
#1031=CARTESIAN_POINT('Origin',(-10.713950525046,-13.21,21.7090507479559));
#1032=CARTESIAN_POINT('Origin',(-10.713950525046,-24.71,21.7090507479559));
#1033=CARTESIAN_POINT('Origin',(10.9586560424328,0.78999999999998,43.8716539693447));
#1034=CARTESIAN_POINT('',(8.83762584067162,-13.21,41.7500435236651));
#1035=CARTESIAN_POINT('',(7.95865604243281,-13.21,43.8716539693447));
#1036=CARTESIAN_POINT('Origin',(10.9586560424328,-13.21,43.8716539693447));
#1037=CARTESIAN_POINT('',(7.95865604243281,-24.71,43.8716539693447));
#1038=CARTESIAN_POINT('',(7.95865604243281,0.78999999999998,43.8716539693447));
#1039=CARTESIAN_POINT('',(8.83762584067162,-24.71,41.7500435236651));
#1040=CARTESIAN_POINT('Origin',(10.9586560424328,-24.71,43.8716539693447));
#1041=CARTESIAN_POINT('',(8.83762584067162,0.78999999999998,41.7500435236651));
#1042=CARTESIAN_POINT('Origin',(7.95865604243281,0.78999999999998,42.5489726630097));
#1043=CARTESIAN_POINT('',(7.95865604243281,-24.71,54.2238816025372));
#1044=CARTESIAN_POINT('',(7.95865604243281,0.78999999999998,54.2238816025372));
#1045=CARTESIAN_POINT('',(7.95865604243281,-24.71,42.5489726630097));
#1046=CARTESIAN_POINT('',(7.95865604243281,-13.21,38.0974650840509));
#1047=CARTESIAN_POINT('',(7.95865604243281,-13.21,38.2127813386535));
#1048=CARTESIAN_POINT('',(7.95865604243281,-10.21,42.5489726630097));
#1049=CARTESIAN_POINT('Ctrl Pts',(7.95865604243281,-10.21,42.5489726630097));
#1050=CARTESIAN_POINT('Ctrl Pts',(7.95865604243281,-10.539695430614,42.5489726630097));
#1051=CARTESIAN_POINT('Ctrl Pts',(7.95865604243281,-10.9250573740459,42.4594023365171));
#1052=CARTESIAN_POINT('Ctrl Pts',(7.95865604243281,-11.5643078618265,42.1589025399868));
#1053=CARTESIAN_POINT('Ctrl Pts',(7.95865604243281,-11.9174894842596,41.8768350683037));
#1054=CARTESIAN_POINT('Ctrl Pts',(7.95865604243281,-12.4698666488698,41.2341529448656));
#1055=CARTESIAN_POINT('Ctrl Pts',(7.95865604243281,-12.7342414257489,40.7348929850287));
#1056=CARTESIAN_POINT('Ctrl Pts',(7.95865604243281,-13.0008431154782,39.9593379049966));
#1057=CARTESIAN_POINT('Ctrl Pts',(7.95865604243281,-13.0868200930677,39.5866722392851));
#1058=CARTESIAN_POINT('Ctrl Pts',(7.95865604243281,-13.190898674067,38.8303256262173));
#1059=CARTESIAN_POINT('Ctrl Pts',(7.95865604243281,-13.21,38.4467825843074));
#1060=CARTESIAN_POINT('Ctrl Pts',(7.95865604243281,-13.21,38.0974650840509));
#1061=CARTESIAN_POINT('',(7.95865604243281,86.097,42.5489726630097));
#1062=CARTESIAN_POINT('',(7.95865604243281,0.78999999999998,42.5489726630097));
#1063=CARTESIAN_POINT('',(7.95865604243281,89.097,38.0974650840509));
#1064=CARTESIAN_POINT('Ctrl Pts',(7.95865604243281,89.097,38.0974650840509));
#1065=CARTESIAN_POINT('Ctrl Pts',(7.95865604243281,89.097,38.4467825843074));
#1066=CARTESIAN_POINT('Ctrl Pts',(7.95865604243281,89.077898674067,38.8303256262173));
#1067=CARTESIAN_POINT('Ctrl Pts',(7.95865604243281,88.9738200930677,39.5866722392851));
#1068=CARTESIAN_POINT('Ctrl Pts',(7.95865604243281,88.8878431154782,39.9593379049966));
#1069=CARTESIAN_POINT('Ctrl Pts',(7.95865604243281,88.6212414257489,40.7348929850287));
#1070=CARTESIAN_POINT('Ctrl Pts',(7.95865604243281,88.3568666488698,41.2341529448656));
#1071=CARTESIAN_POINT('Ctrl Pts',(7.95865604243281,87.8044894842596,41.8768350683037));
#1072=CARTESIAN_POINT('Ctrl Pts',(7.95865604243281,87.4513078618264,42.1589025399868));
#1073=CARTESIAN_POINT('Ctrl Pts',(7.95865604243281,86.8120573740458,42.4594023365171));
#1074=CARTESIAN_POINT('Ctrl Pts',(7.95865604243281,86.426695430614,42.5489726630097));
#1075=CARTESIAN_POINT('Ctrl Pts',(7.95865604243281,86.097,42.5489726630097));
#1076=CARTESIAN_POINT('',(7.95865604243281,89.097,43.9133282952895));
#1077=CARTESIAN_POINT('',(7.95865604243281,89.097,37.7294863315048));
#1078=CARTESIAN_POINT('',(7.95865604243281,109.097,43.9133282952895));
#1079=CARTESIAN_POINT('Origin',(9.65631254614036,0.78999999999998,20.7854122539671));
#1080=CARTESIAN_POINT('',(7.78734882753255,-13.21,23.132106656425));
#1081=CARTESIAN_POINT('Origin',(9.65631254614036,-13.21,20.7854122539671));
#1082=CARTESIAN_POINT('',(7.78734882753255,-24.71,23.132106656425));
#1083=CARTESIAN_POINT('',(7.78734882753255,0.78999999999998,23.132106656425));
#1084=CARTESIAN_POINT('Origin',(9.65631254614036,-24.71,20.7854122539671));
#1085=CARTESIAN_POINT('Origin',(3.08148791101958E-32,0.78999999999998,32.91));
#1086=CARTESIAN_POINT('Origin',(3.08148791101958E-32,-24.71,32.91));
#1087=CARTESIAN_POINT('Origin',(3.08148791101958E-32,-13.21,32.91));
#1088=CARTESIAN_POINT('Origin',(3.08148791101958E-32,-10.21,32.91));
#1089=CARTESIAN_POINT('',(-7.04134395756719,-13.21,39.2872623649362));
#1090=CARTESIAN_POINT('Origin',(3.08148791101958E-32,-13.21,32.91));
#1091=CARTESIAN_POINT('',(-7.04134395756719,-10.21,43.2380915599753));
#1092=CARTESIAN_POINT('Ctrl Pts',(-7.04134395756719,-13.21,39.2872623649362));
#1093=CARTESIAN_POINT('Ctrl Pts',(-7.04134395756719,-13.21,39.5742947859664));
#1094=CARTESIAN_POINT('Ctrl Pts',(-7.04134395756719,-13.1903545256447,39.8890286196235));
#1095=CARTESIAN_POINT('Ctrl Pts',(-7.04134395756719,-13.0939174923836,40.5086771862117));
#1096=CARTESIAN_POINT('Ctrl Pts',(-7.04134395756719,-13.0165813451763,40.8135070413134));
#1097=CARTESIAN_POINT('Ctrl Pts',(-7.04134395756719,-12.7691960470157,41.5001883323756));
#1098=CARTESIAN_POINT('Ctrl Pts',(-7.04134395756719,-12.5089234721413,41.963510511079));
#1099=CARTESIAN_POINT('Ctrl Pts',(-7.04134395756719,-11.9637564532526,42.5755242247877));
#1100=CARTESIAN_POINT('Ctrl Pts',(-7.04134395756719,-11.6046929027174,42.8502636167524));
#1101=CARTESIAN_POINT('Ctrl Pts',(-7.04134395756719,-10.9513179008381,43.1485180443673));
#1102=CARTESIAN_POINT('Ctrl Pts',(-7.04134395756719,-10.5514673208921,43.2380915599752));
#1103=CARTESIAN_POINT('Ctrl Pts',(-7.04134395756719,-10.21,43.2380915599752));
#1104=CARTESIAN_POINT('Origin',(3.08148791101958E-32,-10.21,32.91));
#1105=CARTESIAN_POINT('Origin',(3.08148791101958E-32,0.78999999999998,32.91));
#1106=CARTESIAN_POINT('',(-7.04134395756719,86.097,43.2380915599753));
#1107=CARTESIAN_POINT('',(-7.04134395756719,0.78999999999998,43.2380915599753));
#1108=CARTESIAN_POINT('Origin',(3.08148791101958E-32,86.097,32.91));
#1109=CARTESIAN_POINT('Origin',(0.,-13.21,33.8765900142973));
#1110=CARTESIAN_POINT('',(-7.04134395756719,-13.21,44.0464616495501));
#1111=CARTESIAN_POINT('Origin',(3.08148791101958E-32,-13.21,32.91));
#1112=CARTESIAN_POINT('Origin',(3.08148791101958E-32,-10.21,32.91));
#1113=CARTESIAN_POINT('Origin',(3.08148791101958E-32,-10.21,32.91));
#1114=CARTESIAN_POINT('Origin',(3.08148791101958E-32,-13.21,32.91));
#1115=CARTESIAN_POINT('Origin',(0.,-13.21,33.8765900142973));
#1116=CARTESIAN_POINT('',(9.5,-13.21,32.91));
#1117=CARTESIAN_POINT('Origin',(3.08148791101958E-32,-13.21,32.91));
#1118=CARTESIAN_POINT('Origin',(3.08148791101958E-32,-13.21,32.91));
#1119=CARTESIAN_POINT('Origin',(3.08148791101958E-32,86.097,32.91));
#1120=CARTESIAN_POINT('',(-7.04134395756719,89.097,39.2872623649362));
#1121=CARTESIAN_POINT('Ctrl Pts',(-7.04134395756719,86.097,43.2380915599752));
#1122=CARTESIAN_POINT('Ctrl Pts',(-7.04134395756719,86.438467320892,43.2380915599752));
#1123=CARTESIAN_POINT('Ctrl Pts',(-7.04134395756719,86.8383179008381,43.1485180443673));
#1124=CARTESIAN_POINT('Ctrl Pts',(-7.04134395756719,87.4916929027174,42.8502636167524));
#1125=CARTESIAN_POINT('Ctrl Pts',(-7.04134395756719,87.8507564532526,42.5755242247877));
#1126=CARTESIAN_POINT('Ctrl Pts',(-7.04134395756719,88.3959234721412,41.963510511079));
#1127=CARTESIAN_POINT('Ctrl Pts',(-7.04134395756719,88.6561960470157,41.5001883323756));
#1128=CARTESIAN_POINT('Ctrl Pts',(-7.04134395756719,88.9035813451763,40.8135070413134));
#1129=CARTESIAN_POINT('Ctrl Pts',(-7.04134395756719,88.9809174923836,40.5086771862117));
#1130=CARTESIAN_POINT('Ctrl Pts',(-7.04134395756719,89.0773545256446,39.8890286196235));
#1131=CARTESIAN_POINT('Ctrl Pts',(-7.04134395756719,89.097,39.5742947859664));
#1132=CARTESIAN_POINT('Ctrl Pts',(-7.04134395756719,89.097,39.2872623649362));
#1133=CARTESIAN_POINT('Origin',(3.08148791101958E-32,89.097,32.91));
#1134=CARTESIAN_POINT('Origin',(2.22044604925031E-15,89.097,32.91));
#1135=CARTESIAN_POINT('',(-7.04134395756719,89.097,44.9102514846798));
#1136=CARTESIAN_POINT('',(-7.04134395756719,89.097,43.5631666424015));
#1137=CARTESIAN_POINT('Origin',(-12.0413439575672,89.097,44.9102514846798));
#1138=CARTESIAN_POINT('Origin',(3.08148791101958E-32,89.097,32.91));
#1139=CARTESIAN_POINT('',(8.19781965241535,89.097,24.1466813964986));
#1140=CARTESIAN_POINT('Origin',(11.6135778409217,89.097,20.4952986450398));
#1141=CARTESIAN_POINT('',(9.14728661818787,89.097,40.6770552672632));
#1142=CARTESIAN_POINT('Origin',(2.22044604925031E-15,89.097,32.91));
#1143=CARTESIAN_POINT('Origin',(12.9586560424328,89.097,43.9133282952895));
#1144=CARTESIAN_POINT('',(5.,89.097,32.91));
#1145=CARTESIAN_POINT('Origin',(2.22044604925031E-15,89.097,32.91));
#1146=CARTESIAN_POINT('Origin',(11.6135778409217,109.097,20.4952986450398));
#1147=CARTESIAN_POINT('',(8.19781965241535,109.097,24.1466813964986));
#1148=CARTESIAN_POINT('Origin',(12.9586560424328,109.097,43.9133282952895));
#1149=CARTESIAN_POINT('',(9.14728661818787,109.097,40.6770552672632));
#1150=CARTESIAN_POINT('Origin',(-12.0413439575672,109.097,44.9102514846798));
#1151=CARTESIAN_POINT('',(-7.04134395756719,109.097,44.9102514846798));
#1152=CARTESIAN_POINT('Origin',(2.22044604925031E-15,109.097,32.91));
#1153=CARTESIAN_POINT('',(5.,109.097,32.91));
#1154=CARTESIAN_POINT('Origin',(2.22044604925031E-15,109.097,32.91));
#1155=CARTESIAN_POINT('Origin',(3.08148791101958E-32,0.78999999999998,32.91));
#1156=CARTESIAN_POINT('Origin',(7.95865604243281,0.78999999999998,54.2238816025372));
#1157=CARTESIAN_POINT('',(-7.04134395756719,-24.71,54.2163332848029));
#1158=CARTESIAN_POINT('',(-7.04134395756719,0.78999999999998,54.2163332848029));
#1159=CARTESIAN_POINT('',(7.95865604243281,-24.71,54.2238816025372));
#1160=CARTESIAN_POINT('Origin',(-7.04134395756719,0.78999999999998,54.2163332848029));
#1161=CARTESIAN_POINT('',(-7.04134395756719,-24.71,43.2380915599753));
#1162=CARTESIAN_POINT('Origin',(3.08148791101958E-32,0.78999999999998,32.91));
#1163=CARTESIAN_POINT('',(9.5,-24.71,32.91));
#1164=CARTESIAN_POINT('Origin',(3.08148791101958E-32,-24.71,32.91));
#1165=CARTESIAN_POINT('',(9.5,0.78999999999998,32.91));
#1166=CARTESIAN_POINT('Origin',(0.,-24.71,33.8765900142973));
#1167=CARTESIAN_POINT('',(0.,0.,0.));
#1168=UNCERTAINTY_MEASURE_WITH_UNIT(LENGTH_MEASURE(0.01),#1174,
'DISTANCE_ACCURACY_VALUE',
'Maximum model space distance between geometric entities at asserted c
onnectivities');
#1169=UNCERTAINTY_MEASURE_WITH_UNIT(LENGTH_MEASURE(0.01),#1174,
'DISTANCE_ACCURACY_VALUE',
'Maximum model space distance between geometric entities at asserted c
onnectivities');
#1170=UNCERTAINTY_MEASURE_WITH_UNIT(LENGTH_MEASURE(0.01),#1174,
'DISTANCE_ACCURACY_VALUE',
'Maximum model space distance between geometric entities at asserted c
onnectivities');
#1171=(
GEOMETRIC_REPRESENTATION_CONTEXT(3)
GLOBAL_UNCERTAINTY_ASSIGNED_CONTEXT((#1168))
GLOBAL_UNIT_ASSIGNED_CONTEXT((#1174,#1176,#1177))
REPRESENTATION_CONTEXT('','3D')
);
#1172=(
GEOMETRIC_REPRESENTATION_CONTEXT(3)
GLOBAL_UNCERTAINTY_ASSIGNED_CONTEXT((#1169))
GLOBAL_UNIT_ASSIGNED_CONTEXT((#1174,#1176,#1177))
REPRESENTATION_CONTEXT('','3D')
);
#1173=(
GEOMETRIC_REPRESENTATION_CONTEXT(3)
GLOBAL_UNCERTAINTY_ASSIGNED_CONTEXT((#1170))
GLOBAL_UNIT_ASSIGNED_CONTEXT((#1174,#1176,#1177))
REPRESENTATION_CONTEXT('','3D')
);
#1174=(
LENGTH_UNIT()
NAMED_UNIT(*)
SI_UNIT(.MILLI.,.METRE.)
);
#1175=(
LENGTH_UNIT()
NAMED_UNIT(*)
SI_UNIT($,.METRE.)
);
#1176=(
NAMED_UNIT(*)
PLANE_ANGLE_UNIT()
SI_UNIT($,.RADIAN.)
);
#1177=(
NAMED_UNIT(*)
SI_UNIT($,.STERADIAN.)
SOLID_ANGLE_UNIT()
);
#1178=SHAPE_DEFINITION_REPRESENTATION(#1180,#1183);
#1179=SHAPE_DEFINITION_REPRESENTATION(#1181,#1184);
#1180=PRODUCT_DEFINITION_SHAPE('',$,#1186);
#1181=PRODUCT_DEFINITION_SHAPE('',$,#1187);
#1182=PRODUCT_DEFINITION_SHAPE($,$,#14);
#1183=SHAPE_REPRESENTATION('',(#644,#719),#1171);
#1184=SHAPE_REPRESENTATION('',(#645),#1172);
#1185=PRODUCT_DEFINITION_CONTEXT('part definition',#1193,'design');
#1186=PRODUCT_DEFINITION('Emax ECO 1407 Motor','Eggbeater v1',#1188,#1185);
#1187=PRODUCT_DEFINITION('Weapon','Weapon',#1189,#1185);
#1188=PRODUCT_DEFINITION_FORMATION('',$,#1195);
#1189=PRODUCT_DEFINITION_FORMATION('',$,#1196);
#1190=PRODUCT_RELATED_PRODUCT_CATEGORY('Eggbeater v1','Eggbeater v1',(#1195));
#1191=PRODUCT_RELATED_PRODUCT_CATEGORY('Weapon','Weapon',(#1196));
#1192=APPLICATION_PROTOCOL_DEFINITION('international standard',
'automotive_design',2009,#1193);
#1193=APPLICATION_CONTEXT(
'Core Data for Automotive Mechanical Design Process');
#1194=PRODUCT_CONTEXT('part definition',#1193,'mechanical');
#1195=PRODUCT('Emax ECO 1407 Motor','Eggbeater v1',$,(#1194));
#1196=PRODUCT('Weapon','Weapon',$,(#1194));
#1197=PRESENTATION_STYLE_ASSIGNMENT((#1199));
#1198=PRESENTATION_STYLE_ASSIGNMENT((#1200));
#1199=SURFACE_STYLE_USAGE(.BOTH.,#1201);
#1200=SURFACE_STYLE_USAGE(.BOTH.,#1202);
#1201=SURFACE_SIDE_STYLE('',(#1203));
#1202=SURFACE_SIDE_STYLE('',(#1204));
#1203=SURFACE_STYLE_FILL_AREA(#1205);
#1204=SURFACE_STYLE_FILL_AREA(#1206);
#1205=FILL_AREA_STYLE('Steel - Satin',(#1207));
#1206=FILL_AREA_STYLE('Aluminum - Satin',(#1208));
#1207=FILL_AREA_STYLE_COLOUR('Steel - Satin',#1209);
#1208=FILL_AREA_STYLE_COLOUR('Aluminum - Satin',#1210);
#1209=COLOUR_RGB('Steel - Satin',0.627450980392157,0.627450980392157,0.627450980392157);
#1210=COLOUR_RGB('Aluminum - Satin',0.96078431372549,0.96078431372549,0.964705882352941);
ENDSEC;
END-ISO-10303-21;
